<svg width="85" height="88" viewBox="0 0 85 88" fill="none" xmlns="http://www.w3.org/2000/svg">
<path d="M34.0585 85.4095L34.051 86.8806C34.051 87.1344 33.8494 87.3361 33.5955 87.3361H31.1238C30.8699 87.3361 30.6683 87.1344 30.6683 86.8806L30.6758 85.4095C30.6907 75.7542 30.7056 65.2627 27.308 57.9596C24.7243 56.2048 13.9415 49.7754 1.26198 54.7785C1.00809 54.8681 0.716863 54.7337 0.634722 54.4649C0.410703 53.6659 0.209085 52.8594 0.0298693 52.038C-0.022402 51.814 0.104543 51.5751 0.321095 51.4929C9.11013 48.1476 17.018 49.6186 22.4617 51.6945C21.2445 50.7761 19.8481 50.0293 18.2427 49.4991C6.68325 45.7132 1.9415 39.2838 0.0298693 34.1314C0 34.0492 -0.00746732 33.9522 0.00746732 33.8626C0.350964 32.2422 0.791536 30.6591 1.31425 29.1208C1.47853 28.6504 2.16552 28.7325 2.21779 29.2179C2.64343 33.0188 4.9359 40.1501 15.5619 44.8545C14.6808 38.679 15.5992 33.3697 16.4206 28.6056C17.5781 21.9074 18.5264 16.4861 14.636 10.4002C14.509 10.1986 14.5463 9.93726 14.7256 9.78045C15.3677 9.25774 16.0174 8.74996 16.6895 8.26458C16.906 8.10777 17.2196 8.16751 17.3615 8.39153C22.0958 15.6647 20.9533 22.2434 19.7511 29.1806C18.8401 34.4151 17.9066 39.8215 19.2358 46.2733C19.2508 46.2807 19.2732 46.2882 19.2956 46.2882C34.1033 51.1644 34.0809 69.3547 34.0585 85.4095Z" fill="#482817"/>
<path d="M83.5891 52.1349C83.4099 52.9413 83.2082 53.7478 82.9842 54.5468C82.9096 54.8082 82.6183 54.9501 82.3644 54.853C68.8411 49.7901 57.0129 56.1971 54.1529 57.9594C52.9955 63.3433 53.0029 69.0633 53.0104 73.0807V86.8803C53.0104 87.1342 52.8088 87.3358 52.5549 87.3358H50.0832C49.8293 87.3358 49.6277 87.1342 49.6277 86.8803V73.0882C49.6128 66.39 49.5978 55.3458 54.5711 47.7068C51.7634 44.4585 49.1274 39.3434 49.2693 33.6159C49.3813 28.7846 51.5095 24.3564 55.3999 20.8169C61.4037 15.3583 62.3371 10.4672 62.0011 5.96443C61.9787 5.59106 62.3744 5.34464 62.6955 5.52386C63.5543 6.00923 64.3981 6.51701 65.2195 7.06212C65.3539 7.15173 65.436 7.29361 65.436 7.45789C65.436 12.11 63.9426 17.6284 57.6775 23.3185C54.4292 26.2606 52.7416 29.7553 52.6445 33.6906C52.54 38.1859 54.5039 42.2407 56.6993 44.9887C57.9687 43.6595 59.4547 42.4946 61.217 41.5761C65.4883 39.3434 69.5431 38.4174 73.1124 37.6109C78.4516 36.3863 81.3115 35.5948 82.4391 32.466C82.5959 32.0254 83.2232 32.0478 83.3352 32.4958C83.6264 33.6682 83.8728 34.8555 84.067 36.0577C84.0894 36.1996 84.0521 36.3415 83.955 36.446C81.5953 39.1417 77.8019 40.0005 73.8666 40.8966C70.4914 41.6657 66.6681 42.5394 62.7777 44.563C59.2083 46.4298 56.9382 49.6333 55.5045 53.3521C60.9482 50.6937 71.4024 47.2139 83.2904 51.5823C83.5144 51.6719 83.6414 51.9109 83.5891 52.1349Z" fill="#482817"/>
<path d="M52.8164 1.51387C53.1599 1.60348 53.2793 2.02911 53.0255 2.283C51.8307 3.49271 49.8369 6.71859 49.1873 14.9476C48.5525 23.0646 44.7591 29.3894 41.705 34.4746C39.5021 38.1411 37.583 41.3371 37.3963 44.1822C40.4729 49.2301 43.5196 55.7341 43.5196 66.2556V86.8803C43.5196 87.1342 43.3179 87.3358 43.064 87.3358H40.5924C40.3385 87.3358 40.1369 87.1342 40.1369 86.8803V66.2481C40.1369 54.5393 36.1717 48.4236 32.6695 43.0247C28.57 36.6999 24.687 30.726 29.3764 18.3153C32.9085 8.98119 33.8195 3.7018 34.0286 1.1405C34.0435 0.931418 34.2003 0.75967 34.4094 0.722333C35.2383 0.572987 36.0821 0.45351 36.9259 0.356435C37.2097 0.326565 37.4561 0.550585 37.4412 0.841811C37.2918 3.7018 36.3659 9.38443 32.5351 19.5176C28.667 29.7553 31.1238 34.385 34.8649 40.2095C35.7461 37.82 37.2097 35.3856 38.8002 32.7347C41.817 27.7092 45.237 22.0117 45.812 14.6862C46.3795 7.37572 48.0074 3.32096 49.6054 1.0733C49.71 0.923951 49.8966 0.856745 50.0684 0.894082C51.0093 1.06583 51.9203 1.27492 52.8164 1.51387Z" fill="#482817"/>
<path d="M58.7379 40.12C62.4044 39.321 64.7267 35.6993 63.9277 32.0329L63.7709 31.3086C63.7186 31.0771 63.4872 30.9277 63.2557 30.9725L62.5313 31.1293C58.8649 31.9284 56.5425 35.55 57.3415 39.2165L57.4984 39.9483C57.5506 40.1797 57.7821 40.3291 58.0136 40.2843L58.7379 40.12Z" fill="#482817"/>
<path d="M57.1698 58.6764L56.5276 59.0423C56.3185 59.1618 56.2513 59.4306 56.3708 59.6397L56.7367 60.2819C58.611 63.5302 62.7703 64.6428 66.0186 62.7685L66.6608 62.4026C66.8699 62.2832 66.9371 62.0143 66.8176 61.8052L66.4517 61.1631C64.5774 57.9148 60.4256 56.8021 57.1698 58.6764Z" fill="#482817"/>
<path d="M45.4461 45.7506L44.7517 45.4967C44.5276 45.4145 44.2737 45.534 44.1916 45.758L43.9377 46.4525C42.6608 49.9845 44.4828 53.875 48.0149 55.1519L48.7093 55.4058C48.9334 55.488 49.1872 55.3685 49.2694 55.1445L49.5233 54.45C50.8002 50.9254 48.9707 47.0275 45.4461 45.7506Z" fill="#482817"/>
<path d="M48.0671 38.1413L48.1716 37.4095C48.209 37.1706 48.0372 36.954 47.7983 36.9167L47.0665 36.8121C43.3477 36.282 39.9128 38.8657 39.3826 42.5844L39.2781 43.3162C39.2407 43.5551 39.4125 43.7717 39.6514 43.809L40.3832 43.9136C44.1019 44.4363 47.5369 41.8526 48.0671 38.1413Z" fill="#482817"/>
<path d="M42.3023 19.1371L42.4069 18.4053C42.4442 18.1664 42.2799 17.9424 42.041 17.9125L41.3092 17.808C37.5979 17.2554 34.1405 19.8241 33.5954 23.5354L33.4909 24.2672C33.4536 24.5061 33.6178 24.7302 33.8568 24.76L34.5886 24.8646C38.2998 25.4172 41.7497 22.8484 42.3023 19.1371Z" fill="#482817"/>
<path d="M25.5232 34.9079L24.8287 35.1618C21.3116 36.4611 19.512 40.3665 20.8113 43.8911L21.0652 44.5856C21.1474 44.8096 21.4012 44.9291 21.6253 44.8469L22.3197 44.593C25.8368 43.2937 27.6365 39.3883 26.3371 35.8637L26.0833 35.1693C26.0011 34.9378 25.7547 34.8258 25.5232 34.9079Z" fill="#482817"/>
<path d="M15.5918 27.0223C16.122 23.3036 13.5383 19.8686 9.81955 19.3384L9.08775 19.2339C8.8488 19.1965 8.63225 19.3683 8.59491 19.6072L8.49037 20.339C7.96019 24.0578 10.5439 27.4927 14.2551 28.0229L14.9869 28.1274C15.2259 28.1648 15.4424 27.993 15.4798 27.7541L15.5918 27.0223Z" fill="#482817"/>
<path d="M10.7006 39.0447C13.3515 36.3938 13.3515 32.0851 10.7006 29.4342L10.1779 28.9115C10.0061 28.7398 9.72986 28.7398 9.56558 28.9115L9.04286 29.4342C6.39196 32.0851 6.39196 36.3938 9.04286 39.0447L9.56558 39.5674C9.73732 39.7391 10.0136 39.7391 10.1779 39.5674L10.7006 39.0447Z" fill="#482817"/>
<path d="M24.2015 7.21162L23.5071 6.9652C23.2831 6.88305 23.0292 7.00253 22.947 7.22655L22.7006 7.92101C21.4386 11.4531 23.2756 15.3435 26.8151 16.6055L27.5096 16.8519C27.7336 16.9341 27.9875 16.8146 28.0696 16.5906L28.316 15.8961C29.578 12.3641 27.7411 8.47359 24.2015 7.21162Z" fill="#482817"/>
<path d="M43.9228 10.1312L44.6396 10.3105C44.8711 10.3702 45.1101 10.2283 45.1698 9.99683L45.349 9.27996C46.2675 5.64338 44.0646 1.94705 40.428 1.02857L39.7112 0.849357C39.4797 0.789619 39.2407 0.931498 39.181 1.16298L39.0018 1.87985C38.0758 5.51643 40.2862 9.21276 43.9228 10.1312Z" fill="#482817"/>
<path d="M81.7074 43.346C78.6607 41.1506 74.4118 41.845 72.2239 44.8917L71.7908 45.4891C71.6489 45.6832 71.6937 45.9595 71.8879 46.094L72.4853 46.5271C75.5319 48.7224 79.7808 48.028 81.9688 44.9813L82.4019 44.3839C82.5438 44.1898 82.499 43.9135 82.3048 43.7791L81.7074 43.346Z" fill="#482817"/>
<path d="M15.4351 61.1705L15.0692 61.8127C14.9497 62.0218 15.0169 62.2906 15.226 62.4101L15.8682 62.776C19.1165 64.6503 23.2758 63.5376 25.15 60.2894L25.5159 59.6472C25.6354 59.4381 25.5682 59.1693 25.3591 59.0498L24.7169 58.6764C21.4687 56.8021 17.3168 57.9147 15.4351 61.1705Z" fill="#482817"/>
<path d="M71.5967 54.8829L70.8724 55.0174C70.6334 55.0622 70.4766 55.2862 70.5214 55.5251L70.6558 56.2495C71.3204 59.9458 74.8525 62.3951 78.5488 61.7305L79.2731 61.5961C79.5121 61.5513 79.6689 61.3272 79.6241 61.0883L79.4897 60.364C78.8251 56.6751 75.293 54.2183 71.5967 54.8829Z" fill="#482817"/>
<path d="M4.58492 60.364L4.45051 61.0883C4.40571 61.3272 4.56252 61.5513 4.80147 61.5961L5.52581 61.7305C9.22213 62.3951 12.7542 59.9383 13.4188 56.2495L13.5532 55.5251C13.598 55.2862 13.4412 55.0622 13.2022 55.0174L12.4779 54.8829C8.78156 54.2183 5.24951 56.6751 4.58492 60.364Z" fill="#482817"/>
<path d="M58.2749 25.0961L57.7373 25.5964C57.5581 25.7607 57.5506 26.037 57.7149 26.2087L58.2152 26.7464C60.769 29.4943 65.0702 29.6512 67.8182 27.0973L68.3558 26.597C68.5351 26.4327 68.5425 26.1564 68.3782 25.9847L67.8779 25.447C65.3241 22.7065 61.0229 22.5423 58.2749 25.0961Z" fill="#482817"/>
<path d="M73.3738 16.15L73.6202 15.4556C73.7024 15.2315 73.5829 14.9777 73.3589 14.8955L72.6644 14.6491C69.1324 13.3871 65.2419 15.2241 63.9799 18.7636L63.7335 19.4581C63.6514 19.6821 63.7708 19.936 63.9949 20.0181L64.6893 20.2645C68.2214 21.519 72.1118 19.6821 73.3738 16.15Z" fill="#482817"/>
<path d="M59.761 7.96583V7.22656C59.761 6.98761 59.5668 6.79346 59.3279 6.79346H58.5886C54.8325 6.79346 51.7933 9.83266 51.7933 13.5887V14.328C51.7933 14.5669 51.9875 14.7611 52.2264 14.7611H52.9657C56.7218 14.7611 59.761 11.7144 59.761 7.96583Z" fill="#482817"/>
<path d="M71.4996 34.0043L71.6041 34.7361C71.6414 34.9751 71.858 35.1393 72.097 35.102L72.8287 34.9975C76.54 34.4598 79.1237 31.0174 78.5861 27.3061L78.4815 26.5743C78.4442 26.3354 78.2276 26.1711 77.9887 26.2084L77.2569 26.313C73.5456 26.8431 70.9694 30.293 71.4996 34.0043Z" fill="#482817"/>
</svg>
