<svg width="84" height="87" viewBox="0 0 84 87" fill="none" xmlns="http://www.w3.org/2000/svg">
<path d="M33.8175 84.9407L33.8101 86.4013C33.8101 86.6534 33.6099 86.8536 33.3578 86.8536H30.9036C30.6515 86.8536 30.4513 86.6534 30.4513 86.4013L30.4587 84.9407C30.4735 75.3537 30.4884 64.9364 27.1148 57.685C24.5494 55.9426 13.8428 49.5587 1.25305 54.5264C1.00096 54.6154 0.711791 54.482 0.630231 54.215C0.407797 53.4217 0.207606 52.6209 0.0296579 51.8053C-0.0222435 51.5829 0.103803 51.3456 0.318823 51.2641C9.04567 47.9424 16.8976 49.403 22.3028 51.4643C21.0942 50.5523 19.7077 49.8108 18.1136 49.2844C6.63597 45.5252 1.92777 39.1414 0.0296579 34.0254C0 33.9438 -0.00741449 33.8474 0.00741449 33.7585C0.348481 32.1495 0.785936 30.5776 1.30495 29.0503C1.46807 28.5831 2.1502 28.6647 2.2021 29.1467C2.62473 32.9206 4.90098 40.0015 15.4518 44.6726C14.5769 38.5408 15.4889 33.2691 16.3045 28.5387C17.4537 21.8879 18.3953 16.5049 14.5324 10.4621C14.4063 10.262 14.4434 10.0024 14.6214 9.84674C15.259 9.32773 15.9041 8.82354 16.5714 8.3416C16.7864 8.18589 17.0978 8.24521 17.2387 8.46765C21.9395 15.6894 20.805 22.2215 19.6113 29.1096C18.7067 34.3071 17.7799 39.6752 19.0997 46.0813C19.1145 46.0888 19.1368 46.0962 19.159 46.0962C33.862 50.9378 33.8397 68.9995 33.8175 84.9407Z" fill="white"/>
<path d="M82.9977 51.9016C82.8198 52.7023 82.6196 53.5031 82.3972 54.2965C82.323 54.556 82.0338 54.6968 81.7818 54.6005C68.3541 49.5734 56.6096 55.9351 53.7698 57.6849C52.6206 63.0307 52.628 68.7102 52.6354 72.6992V86.4012C52.6354 86.6533 52.4352 86.8535 52.1831 86.8535H49.7289C49.4768 86.8535 49.2766 86.6533 49.2766 86.4012V72.7066C49.2618 66.0558 49.247 55.0898 54.185 47.5048C51.3972 44.2795 48.7799 39.2006 48.9208 33.5137C49.032 28.7165 51.1451 24.3197 55.008 20.8052C60.9693 15.3852 61.8961 10.5287 61.5625 6.05781C61.5402 5.68709 61.9332 5.44241 62.252 5.62036C63.1047 6.1023 63.9425 6.60648 64.7581 7.14774C64.8916 7.23672 64.9731 7.37759 64.9731 7.54071C64.9731 12.1599 63.4902 17.6392 57.2695 23.2891C54.0442 26.2104 52.3685 29.6804 52.2721 33.5878C52.1683 38.0513 54.1183 42.0774 56.2982 44.8059C57.5586 43.4861 59.0341 42.3295 60.7839 41.4175C65.025 39.2006 69.0511 38.2812 72.5952 37.4804C77.8966 36.2644 80.7363 35.4785 81.8559 32.3718C82.0116 31.9344 82.6344 31.9566 82.7456 32.4015C83.0348 33.5656 83.2795 34.7445 83.4723 35.9382C83.4945 36.0791 83.4574 36.2199 83.361 36.3237C81.0181 39.0004 77.2515 39.853 73.3441 40.7428C69.9927 41.5065 66.1965 42.374 62.3336 44.3833C58.7894 46.2369 56.5354 49.4177 55.1118 53.1101C60.517 50.4706 70.8973 47.0154 82.7012 51.3529C82.9236 51.4419 83.0496 51.6791 82.9977 51.9016Z" fill="white"/>
<path d="M52.4427 1.63872C52.7837 1.72769 52.9024 2.15032 52.6503 2.40241C51.464 3.60356 49.4843 6.80662 48.8392 14.9774C48.209 23.0369 44.4424 29.317 41.4099 34.3663C39.2226 38.0068 37.3171 41.1802 37.1318 44.0051C40.1865 49.0173 43.2116 55.4753 43.2116 65.9223V86.4011C43.2116 86.6532 43.0114 86.8534 42.7593 86.8534H40.3052C40.0531 86.8534 39.8529 86.6532 39.8529 86.4011V65.9149C39.8529 54.289 35.9158 48.2165 32.4384 42.8559C28.3678 36.5758 24.5123 30.6442 29.1686 18.3213C32.6756 9.0532 33.5802 3.81116 33.7878 1.26799C33.8026 1.06039 33.9584 0.889855 34.166 0.852782C34.989 0.704492 35.8268 0.585861 36.6646 0.489472C36.9464 0.459814 37.1911 0.682249 37.1762 0.971414C37.028 3.81116 36.1086 9.45359 32.3049 19.515C28.4642 29.6803 30.9036 34.2773 34.6182 40.0606C35.4932 37.688 36.9464 35.2708 38.5257 32.6387C41.5211 27.6487 44.917 21.9915 45.4879 14.7179C46.0514 7.45909 47.6677 3.43302 49.2544 1.20126C49.3582 1.05297 49.5436 0.986243 49.7141 1.02332C50.6484 1.19385 51.5529 1.40145 52.4427 1.63872Z" fill="white"/>
<path d="M58.3223 39.9717C61.9629 39.1784 64.2688 35.5824 63.4754 31.9418L63.3197 31.2226C63.2678 30.9928 63.038 30.8445 62.8081 30.889L62.0889 31.0447C58.4484 31.838 56.1425 35.4341 56.9358 39.0746L57.0915 39.8012C57.1434 40.031 57.3733 40.1793 57.6031 40.1348L58.3223 39.9717Z" fill="white"/>
<path d="M56.7653 58.3968L56.1276 58.7601C55.92 58.8787 55.8533 59.1457 55.9719 59.3533L56.3353 59.9909C58.1963 63.2162 62.3262 64.321 65.5515 62.4599L66.1891 62.0966C66.3967 61.978 66.4634 61.7111 66.3448 61.5035L65.9815 60.8658C64.1205 57.6405 59.998 56.5358 56.7653 58.3968Z" fill="white"/>
<path d="M45.1245 45.5621L44.435 45.31C44.2126 45.2284 43.9605 45.3471 43.8789 45.5695L43.6268 46.259C42.3589 49.7661 44.1681 53.629 47.6751 54.8969L48.3647 55.149C48.5871 55.2306 48.8392 55.1119 48.9208 54.8895L49.1729 54.2C50.4407 50.7003 48.6242 46.83 45.1245 45.5621Z" fill="white"/>
<path d="M47.727 38.0069L47.8308 37.2803C47.8679 37.043 47.6974 36.828 47.4601 36.7909L46.7335 36.6871C43.0411 36.1607 39.6304 38.7261 39.104 42.4185L39.0002 43.1452C38.9631 43.3824 39.1336 43.5974 39.3709 43.6345L40.0975 43.7383C43.7899 44.2573 47.2006 41.6919 47.727 38.0069Z" fill="white"/>
<path d="M42.0031 19.137L42.1069 18.4104C42.1439 18.1731 41.9808 17.9507 41.7436 17.921L41.0169 17.8172C37.3319 17.2685 33.899 19.8191 33.3578 23.5041L33.254 24.2307C33.2169 24.468 33.38 24.6904 33.6173 24.7201L34.3439 24.8239C38.0289 25.3726 41.4544 22.822 42.0031 19.137Z" fill="white"/>
<path d="M25.3427 34.7964L24.6532 35.0485C21.1609 36.3386 19.3741 40.2164 20.6642 43.716L20.9163 44.4056C20.9978 44.628 21.2499 44.7466 21.4724 44.6651L22.1619 44.413C25.6541 43.1229 27.441 39.2451 26.1509 35.7455L25.8988 35.0559C25.8172 34.8261 25.5726 34.7148 25.3427 34.7964Z" fill="white"/>
<path d="M15.4814 26.9667C16.0079 23.2742 13.4424 19.8636 9.75003 19.3371L9.02341 19.2333C8.78614 19.1963 8.57112 19.3668 8.53405 19.6041L8.43025 20.3307C7.90382 24.0231 10.4692 27.4338 14.1542 27.9602L14.8809 28.064C15.1181 28.1011 15.3331 27.9305 15.3702 27.6933L15.4814 26.9667Z" fill="white"/>
<path d="M10.6249 38.904C13.2571 36.2718 13.2571 31.9937 10.6249 29.3615L10.1059 28.8425C9.9354 28.672 9.66106 28.672 9.49794 28.8425L8.97893 29.3615C6.34679 31.9937 6.34679 36.2718 8.97893 38.904L9.49794 39.423C9.66848 39.5935 9.94281 39.5935 10.1059 39.423L10.6249 38.904Z" fill="white"/>
<path d="M24.0303 7.29612L23.3408 7.05144C23.1183 6.96988 22.8663 7.08851 22.7847 7.31094L22.54 8.00049C21.287 11.5075 23.1109 15.3705 26.6254 16.6235L27.3149 16.8682C27.5374 16.9498 27.7895 16.8311 27.871 16.6087L28.1157 15.9192C29.3688 12.4121 27.5448 8.54916 24.0303 7.29612Z" fill="white"/>
<path d="M43.612 10.1951L44.3238 10.3731C44.5536 10.4324 44.7909 10.2915 44.8502 10.0616L45.0282 9.34986C45.9401 5.739 43.7529 2.06883 40.142 1.15685L39.4302 0.978899C39.2004 0.919583 38.9631 1.06046 38.9038 1.29031L38.7259 2.0021C37.8065 5.61295 40.0011 9.28312 43.612 10.1951Z" fill="white"/>
<path d="M81.1293 43.1748C78.1042 40.9949 73.8853 41.6845 71.7129 44.7096L71.2828 45.3028C71.142 45.4955 71.1864 45.7699 71.3792 45.9033L71.9724 46.3334C74.9975 48.5132 79.2163 47.8237 81.3888 44.7986L81.8188 44.2054C81.9597 44.0126 81.9152 43.7383 81.7224 43.6048L81.1293 43.1748Z" fill="white"/>
<path d="M15.3257 60.873L14.9624 61.5106C14.8438 61.7182 14.9105 61.9851 15.1181 62.1038L15.7558 62.4671C18.9811 64.3281 23.1109 63.2234 24.972 59.9981L25.3353 59.3604C25.4539 59.1528 25.3872 58.8859 25.1796 58.7673L24.5419 58.3965C21.3166 56.5355 17.1942 57.6403 15.3257 60.873Z" fill="white"/>
<path d="M71.0901 54.6302L70.3709 54.7637C70.1336 54.8082 69.9779 55.0306 70.0224 55.2679L70.1559 55.9871C70.8158 59.6572 74.3228 62.0892 77.993 61.4293L78.7122 61.2958C78.9495 61.2514 79.1052 61.0289 79.0607 60.7917L78.9272 60.0725C78.2673 56.4097 74.7603 53.9703 71.0901 54.6302Z" fill="white"/>
<path d="M4.55248 60.0725L4.41902 60.7917C4.37454 61.0289 4.53024 61.2514 4.7675 61.2958L5.48671 61.4293C9.15688 62.0892 12.6639 59.6498 13.3238 55.9871L13.4573 55.2679C13.5018 55.0306 13.3461 54.8082 13.1088 54.7637L12.3896 54.6302C8.71943 53.9703 5.21237 56.4097 4.55248 60.0725Z" fill="white"/>
<path d="M57.8627 25.0537L57.3288 25.5505C57.1509 25.7136 57.1434 25.9879 57.3066 26.1585L57.8033 26.6923C60.3391 29.4208 64.6098 29.5765 67.3384 27.0408L67.8722 26.544C68.0502 26.3809 68.0576 26.1066 67.8945 25.936L67.3977 25.4022C64.8619 22.6811 60.5912 22.518 57.8627 25.0537Z" fill="white"/>
<path d="M72.8547 16.1713L73.0994 15.4817C73.1809 15.2593 73.0623 15.0072 72.8399 14.9256L72.1503 14.6809C68.6433 13.4279 64.7803 15.2519 63.5273 18.7663L63.2826 19.4559C63.201 19.6783 63.3197 19.9304 63.5421 20.012L64.2317 20.2566C67.7387 21.5023 71.6017 19.6783 72.8547 16.1713Z" fill="white"/>
<path d="M59.3381 8.04493V7.3109C59.3381 7.07364 59.1453 6.88086 58.9081 6.88086H58.174C54.4445 6.88086 51.4268 9.89856 51.4268 13.628V14.3621C51.4268 14.5993 51.6196 14.7921 51.8569 14.7921H52.5909C56.3204 14.7921 59.3381 11.767 59.3381 8.04493Z" fill="white"/>
<path d="M70.9937 33.8993L71.0975 34.6259C71.1346 34.8632 71.3496 35.0263 71.5869 34.9892L72.3135 34.8854C75.9985 34.3516 78.5639 30.9335 78.03 27.2485L77.9262 26.5219C77.8892 26.2846 77.6742 26.1215 77.4369 26.1586L76.7103 26.2624C73.0253 26.7888 70.4673 30.2143 70.9937 33.8993Z" fill="white"/>
</svg>
